PathFileType	4	(X/Y/Z)	/Users/itak/Documents/Research/Walk-IL/dataset/trc/00337_00011.trc
DataRate	CameraRate	NumFrames	NumMarkers	Units	OrigDataRate	OrigDataStartFrame	OrigNumFrames
100.000000	100.000000	4	53	mm	100.000000	715	818
Frame#	Time	RPSI			LPSI			L3			STRN			T10			C7			CLAV			RBAK			LBAK			LSHO			LUPA			LAEL			LAOL			LWTS			LWPS			LFRA			LIFD			LHPS			LHTS			RSHO			RUPA			RAEL			RAOL			RWTS			RWPS			RFRA			RIFD			RHTS			RHPS			RBHD			LFHD			RFHD			LBHD			LHIP			RHIP			RASI			LASI			LKNE			LTHI			LANK			LTIP			LTOE			LMT1			LMT5			LHEE			RKNE			RTHI			RANK			RTIP			RTOE			RMT1			RMT5			RHEE			
		X1	Y1	Z1	X2	Y2	Z2	X3	Y3	Z3	X4	Y4	Z4	X5	Y5	Z5	X6	Y6	Z6	X7	Y7	Z7	X8	Y8	Z8	X9	Y9	Z9	X10	Y10	Z10	X11	Y11	Z11	X12	Y12	Z12	X13	Y13	Z13	X14	Y14	Z14	X15	Y15	Z15	X16	Y16	Z16	X17	Y17	Z17	X18	Y18	Z18	X19	Y19	Z19	X20	Y20	Z20	X21	Y21	Z21	X22	Y22	Z22	X23	Y23	Z23	X24	Y24	Z24	X25	Y25	Z25	X26	Y26	Z26	X27	Y27	Z27	X28	Y28	Z28	X29	Y29	Z29	X30	Y30	Z30	X31	Y31	Z31	X32	Y32	Z32	X33	Y33	Z33	X34	Y34	Z34	X35	Y35	Z35	X36	Y36	Z36	X37	Y37	Z37	X38	Y38	Z38	X39	Y39	Z39	X40	Y40	Z40	X41	Y41	Z41	X42	Y42	Z42	X43	Y43	Z43	X44	Y44	Z44	X45	Y45	Z45	X46	Y46	Z46	X47	Y47	Z47	X48	Y48	Z48	X49	Y49	Z49	X50	Y50	Z50	X51	Y51	Z51	X52	Y52	Z52	X53	Y53	Z53	

716	7.15	-542.2081909179688	983.283447265625	952.6638793945312	-538.296630859375	983.2860717773438	823.3549194335938	-544.04736328125	1037.620727539062	891.7421264648438	-326.9841918945312	1234.168212890625	891.8712768554688	-564.4669189453125	1157.130981445312	880.5455932617188	-534.3991088867188	1407.126342773438	864.8490600585938	-376.3299865722656	1357.319091796875	883.421142578125	-580.7286376953125	1266.78369140625	931.0288696289062	-536.3576049804688	1369.566284179688	763.7872314453125	-447.3030090332031	1388.02734375	714.0534057617188	-453.4094848632812	1266.785766601562	648.1282348632812	-417.8948669433594	1064.841674804688	639.8130493164062	-484.8696899414062	1046.803100585938	689.2410278320312	-297.2631530761719	838.1900634765625	700.7286376953125	-328.2365417480469	820.1351928710938	641.779052734375	-390.1055603027344	962.2276611328125	636.121337890625	-273.346435546875	678.985107421875	714.2088012695312	-323.380859375	749.4734497070312	651.8775024414062	-273.4681091308594	761.0347290039062	690.1005859375	-490.1914672851562	1397.916870117188	1031.207885742188	-503.4361572265625	1333.821166992188	1095.007568359375	-485.530517578125	1069.542846679688	1146.759399414062	-521.4977416992188	1056.058471679688	1060.201538085938	-360.7791137695312	847.6615600585938	1117.4912109375	-399.8765869140625	832.0203247070312	1181.743530273438	-457.2998962402344	1003.983215332031	1159.675170898438	-336.017333984375	677.2401123046875	1132.401123046875	-323.2378540039062	752.9199829101562	1140.240234375	-378.935791015625	748.50537109375	1182.396240234375	-499.3047485351562	1613.782958984375	947.4376831054688	-323.5808410644531	1632.242431640625	837.265380859375	-338.3145446777344	1635.258178710938	937.12841796875	-504.9781799316406	1603.282958984375	802.8701171875	-421.2090454101562	913.7476196289062	743.111328125	-465.8377990722656	928.1402587890625	1059.960327148438	-359.9051208496094	960.0860595703125	1025.896850585938	-330.2887573242188	958.1915893554688	787.6558837890625	-373.4613952636719	467.2226867675781	767.5480346679688	-382.5109558105469	608.9052734375	742.151123046875	-472.4214782714844	51.37772369384766	805.4428100585938	-424.9900512695312	251.8864288330078	774.6310424804688	-264.2673645019531	61.34633636474609	845.5963745117188	-328.1714172363281	40.22527694702148	892.781494140625	-350.4015197753906	52.84264373779297	781.7708129882812	-500.8311462402344	48.37751770019531	875.322509765625	-424.9154968261719	465.0025939941406	1033.875366210938	-387.79931640625	724.2882080078125	1067.91552734375	-472.8680725097656	46.11253356933594	981.837646484375	-415.1938171386719	346.2478332519531	1022.286376953125	-270.9790649414062	49.26218414306641	965.1974487304688	-317.0015563964844	52.45424652099609	913.7976684570312	-377.3216857910156	34.32184219360352	1017.000732421875	-513.0531616210938	53.59186553955078	924.9929809570312	
717	7.16	-540.8831787109375	982.9661254882812	954.3422241210938	-537.0308227539062	982.6809692382812	825.056884765625	-542.8956298828125	1036.997802734375	893.483154296875	-326.0943908691406	1233.867065429688	893.4666748046875	-563.6620483398438	1156.5302734375	882.3923950195312	-533.8147583007812	1406.573120117188	866.8643188476562	-375.6362609863281	1356.940307617188	885.1732177734375	-579.964111328125	1266.136352539062	932.9094848632812	-535.8343505859375	1369.062377929688	765.7974243164062	-446.9061584472656	1387.704467773438	715.9043579101562	-453.1315612792969	1266.459350585938	649.8619384765625	-417.6204223632812	1064.527221679688	641.24072265625	-484.5470886230469	1046.478271484375	690.7998657226562	-297.5961608886719	837.3536376953125	701.7870483398438	-328.6517639160156	819.5858154296875	642.7368774414062	-390.0257263183594	961.8551635742188	637.4177856445312	-274.1247253417969	678.1156616210938	714.8056030273438	-323.9784851074219	748.9077758789062	652.6216430664062	-274.0038146972656	760.197265625	690.9229736328125	-489.3987121582031	1397.15771484375	1033.211547851562	-502.5513610839844	1332.842041015625	1096.866821289062	-484.4952697753906	1068.330200195312	1147.53759765625	-520.5953369140625	1055.20166015625	1061.014892578125	-360.0904846191406	846.3630981445312	1117.104736328125	-398.8348388671875	830.6293334960938	1181.495971679688	-456.203857421875	1002.718200683594	1160.134033203125	-335.6061401367188	675.8573608398438	1131.41650390625	-322.7108764648438	751.2359008789062	1139.414794921875	-378.0337524414062	747.0943603515625	1181.834350585938	-498.7464294433594	1613.22265625	949.58154296875	-323.3743896484375	1632.042724609375	838.9456176757812	-337.84326171875	1634.968017578125	938.8386840820312	-504.8549499511719	1602.813598632812	805.0817260742188	-419.8911437988281	913.0673828125	744.865478515625	-464.3118286132812	927.8928833007812	1061.6845703125	-358.5455017089844	959.9586791992188	1027.573364257812	-329.037109375	957.6210327148438	789.2889404296875	-373.0676879882812	466.5435485839844	768.8333740234375	-382.0343933105469	608.309814453125	743.7357788085938	-471.9363403320312	51.341552734375	805.7752685546875	-424.4200439453125	251.4664459228516	775.5142211914062	-263.7598571777344	59.31225967407227	846.4275512695312	-328.063232421875	38.66959381103516	893.7127075195312	-349.8834838867188	52.05241775512695	782.3640747070312	-500.5096740722656	48.14092254638672	875.474365234375	-424.8792114257812	464.7544250488281	1034.780029296875	-386.4268493652344	724.0386962890625	1069.542724609375	-472.9008483886719	46.07788848876953	981.828857421875	-415.3526306152344	346.1426696777344	1022.970275878906	-270.9383239746094	49.34514999389648	965.3201293945312	-316.8238525390625	52.6890869140625	913.812744140625	-377.3411865234375	34.32077789306641	1017.043762207031	-513.0807495117188	53.60064315795898	924.9839477539062	
718	7.17	-539.6083984375	982.6879272460938	955.9575805664062	-535.7857666015625	982.1714477539062	826.7061157226562	-541.7650756835938	1036.427856445312	895.1553344726562	-325.2153625488281	1233.609619140625	895.0321044921875	-562.9033203125	1155.980224609375	884.159423828125	-533.2369384765625	1406.07861328125	868.7918090820312	-374.9589233398438	1356.6044921875	886.8778686523438	-579.2235107421875	1265.538330078125	934.6962890625	-535.2941284179688	1368.593872070312	767.7137451171875	-446.4771423339844	1387.42431640625	717.6860961914062	-452.8031311035156	1266.162109375	651.5293579101562	-417.3042297363281	1064.2470703125	642.62255859375	-484.1679992675781	1046.1865234375	692.3246459960938	-297.981201171875	836.4739379882812	702.7266845703125	-329.1381225585938	819.035400390625	643.5810546875	-389.941162109375	961.5194702148438	638.64794921875	-275.0474548339844	677.2072143554688	715.2232055664062	-324.7001953125	748.3701782226562	653.2230834960938	-274.6364440917969	759.3099365234375	691.6052856445312	-488.6465759277344	1396.444946289062	1035.1396484375	-501.7286987304688	1331.916625976562	1098.649536132812	-483.5904541015625	1067.161865234375	1148.246215820312	-519.7922973632812	1054.402709960938	1061.743530273438	-359.5431518554688	845.12548828125	1116.7431640625	-398.0022277832031	829.2767333984375	1181.213623046875	-455.2869873046875	1001.500854492188	1160.546508789062	-335.3607482910156	674.5252075195312	1130.42919921875	-322.3370056152344	749.6476440429688	1138.6083984375	-377.3349304199219	745.7178955078125	1181.234252929688	-498.2236328125	1612.703125	951.6392822265625	-323.175537109375	1631.888671875	840.5665893554688	-337.3970336914062	1634.730102539062	940.486328125	-504.7270202636719	1602.376708984375	807.2078857421875	-418.5761413574219	912.5	746.5635375976562	-462.8699951171875	927.6591796875	1063.404052734375	-357.2694091796875	959.8433227539062	1029.240234375	-327.7844848632812	957.14697265625	790.9116821289062	-372.6969909667969	466.0226135253906	769.9290771484375	-381.541259765625	607.8350219726562	745.1682739257812	-471.63427734375	51.32295989990234	805.929931640625	-423.9657287597656	251.1317596435547	776.1957397460938	-263.4182739257812	57.44911575317383	846.9898681640625	-328.0775756835938	37.33919525146484	894.3441162109375	-349.537353515625	51.34688186645508	782.7158813476562	-500.3174438476562	47.97523880004883	875.47607421875	-424.8390197753906	464.5184326171875	1035.6044921875	-385.1408081054688	723.80078125	1071.162841796875	-472.9301147460938	46.05112838745117	981.81591796875	-415.5105895996094	346.0462036132812	1023.605590820312	-270.9002990722656	49.41343688964844	965.4302368164062	-316.7073669433594	52.85182189941406	913.8931884765625	-377.3582763671875	34.32292938232422	1017.082092285156	-513.0812377929688	53.63194274902344	924.9636840820312	
719	7.18	-538.383544921875	982.4476318359375	957.5220336914062	-534.57080078125	981.7684326171875	828.3115234375	-540.6629638671875	1035.923706054688	896.7694091796875	-324.349853515625	1233.4091796875	896.570556640625	-562.1787109375	1155.490234375	885.84716796875	-532.6635131835938	1405.654296875	870.6354370117188	-374.2981872558594	1356.323974609375	888.537109375	-578.5029907226562	1265.002197265625	936.3961181640625	-534.73828125	1368.171997070312	769.5414428710938	-446.0197143554688	1387.199340820312	719.4015502929688	-452.4182739257812	1265.9140625	653.1329345703125	-416.9415283203125	1064.017211914062	643.9662475585938	-483.7311096191406	1045.945556640625	693.8228149414062	-298.4169006347656	835.5671997070312	703.5545043945312	-329.6881103515625	818.4991455078125	644.3229370117188	-389.8493957519531	961.238525390625	639.8217163085938	-276.1262512207031	676.2658081054688	715.4682006835938	-325.5482788085938	747.8809814453125	653.6918334960938	-275.3715515136719	758.3819580078125	692.1574096679688	-487.9309387207031	1395.794799804688	1036.992553710938	-500.962158203125	1331.064697265625	1100.35888671875	-482.8024291992188	1066.058471679688	1148.8876953125	-519.0770874023438	1053.683715820312	1062.392944335938	-359.1244201660156	843.9644165039062	1116.403442382812	-397.3630981445312	827.9872436523438	1180.90673828125	-454.5323486328125	1000.3564453125	1160.914306640625	-335.2841186523438	673.2596435546875	1129.445068359375	-322.0934143066406	748.1995849609375	1137.84033203125	-376.8357849121094	744.3931884765625	1180.606079101562	-497.7320861816406	1612.234008789062	953.6156616210938	-322.9865417480469	1631.786743164062	842.1251831054688	-336.9705810546875	1634.5517578125	942.0698852539062	-504.5940246582031	1601.983764648438	809.2476196289062	-417.2746887207031	912.0554809570312	748.2150268554688	-461.5054626464844	927.4375610351562	1065.109741210938	-356.06982421875	959.7385864257812	1030.889892578125	-326.54541015625	956.78466796875	792.5198974609375	-372.3439636230469	465.6663818359375	770.845703125	-381.03857421875	607.4876098632812	746.4593505859375	-471.4549865722656	51.31600952148438	805.9464721679688	-423.5846252441406	250.8806915283203	776.70751953125	-263.1857604980469	55.77957153320312	847.3417358398438	-328.1604309082031	36.24085235595703	894.7262573242188	-349.3009948730469	50.72979736328125	782.878662109375	-500.1983642578125	47.87264251708984	875.3735961914062	-424.7884521484375	464.2977600097656	1036.347045898438	-383.9348754882812	723.5728759765625	1072.767700195312	-472.9552917480469	46.03231048583984	981.7987060546875	-415.6636047363281	345.9498901367188	1024.186645507812	-270.8665771484375	49.4662971496582	965.5254516601562	-316.6516418457031	52.94270324707031	914.0331420898438	-377.3739929199219	34.32842636108398	1017.114318847656	-513.0568237304688	53.68233871459961	924.9334716796875	
